# xmcd
#
# Track frame offsets:
# 150
# 11605
# 22680
# 46225
# 56820
# 84700
# 109835
# 124860
# 132945
# 146300
# 157045
# 180480
# 189355
# 213920
#
# Disc length: 3132 seconds
#
# Revision: 1
# Processed by: cddbd v1.5.1PL0 Copyright (c) Steve Scherf et al.
# Submitted via: CedeCatalogueitor 2.6.0.6 http://personales.ya.com/cdcatalogueitor
#
DISCID=b60c3a0e
DTITLE=Arándano - Cantate Una
DYEAR=1998
DGENRE=
TTITLE0=La Boda Y El Entierro
TTITLE1=Niño Botico
TTITLE2=Cantares De Ronda De Rosalido
TTITLE3=Pasacalles De Galve De Sorbe
TTITLE4=Romance De Las Tres Cautivas
TTITLE5=Mayos De Yela Y Traid
TTITLE6=Romance Del Cebollero
TTITLE7=La Ribereña
TTITLE8=El Mozo Bizarro
TTITLE9=Nana
TTITLE10=Canciones Infantiles
TTITLE11=La Burraca
TTITLE12=Historia De La Isabel
TTITLE13=Jota Del Tío Pedro
EXTD=
EXTT0=
EXTT1=
EXTT2=
EXTT3=
EXTT4=
EXTT5=
EXTT6=
EXTT7=
EXTT8=
EXTT9=
EXTT10=
EXTT11=
EXTT12=
EXTT13=
PLAYORDER=
